<svg width="70" height="70" viewBox="0 0 70 70" fill="none" xmlns="http://www.w3.org/2000/svg">
<path d="M0.0410087 42.6789C-0.0141671 42.1813 0.0214293 40.5334 0.0206969 39.9592L0.0210382 34.2692L0.0154726 17.1527C0.048578 12.3398 1.75014 8.17156 5.20512 4.79743C7.3975 2.66477 10.1295 1.16975 13.1077 0.473021C15.7485 -0.137429 18.0786 0.0170634 20.7806 0.0183818L28.3639 0.0186739L52.9114 0.0174535C57.4675 0.0594456 61.8162 1.92986 64.9802 5.20867C66.2107 6.47507 67.2366 7.92512 68.0212 9.50686C69.6951 12.9073 69.7815 15.183 69.7795 18.824L69.7673 23.2687C69.8474 25.1444 69.7839 27.4815 69.7834 29.378L69.7742 40.8263L69.7761 48.6603C69.7791 51.3058 69.9309 53.9406 69.3284 56.5187C68.6091 59.5954 67.3044 62.0324 65.1721 64.3542C62.1121 67.6437 57.8674 69.5778 53.3772 69.7287C51.0305 69.8224 48.0959 69.7448 45.7131 69.7443L31.0544 69.7433L21.44 69.7429C18.8182 69.7419 15.9791 69.8981 13.4382 69.361C10.4266 68.7326 7.64516 67.2897 5.39682 65.1896C2.11557 62.1222 0.188421 57.8761 0.0398375 53.3864C-0.0674868 50.3371 0.0830504 47.215 0.0206969 44.1613C0.0111266 43.6916 0.0094169 43.1447 0.0410087 42.6789Z" fill="black"/>
<path d="M22.0212 57C19.3505 57 17.0042 55.2277 16.2739 52.6588L6.72818 19.0793C5.86164 16.031 8.15111 13 11.3201 13C13.5331 13 15.456 14.5209 15.9657 16.6744L22.2896 43.3936C22.3144 43.4983 22.4079 43.5723 22.5155 43.5723C22.6211 43.5723 22.7134 43.501 22.7401 43.3988L29.5863 17.1796C30.2292 14.7176 32.4529 13 34.9974 13C37.5443 13 39.7695 14.7209 40.4101 17.1859L47.2361 43.4529C47.2643 43.5612 47.362 43.6367 47.4738 43.6367C47.5876 43.6367 47.6866 43.5584 47.7128 43.4476L54.0358 16.6759C54.5445 14.5217 56.4676 13 58.681 13C61.8495 13 64.1385 16.0305 63.2721 19.0782L53.7265 52.6573C52.996 55.2271 50.6488 57 47.9772 57C45.3161 57 42.9754 55.2406 42.2357 52.6844L35.2075 28.3964C35.1794 28.2993 35.0905 28.2324 34.9894 28.2324C34.8882 28.2324 34.7993 28.2993 34.7712 28.3965L27.7618 52.6819C27.0237 55.2393 24.6829 57 22.0212 57Z" fill="white"/>
</svg>
